<?xml version="1.0" encoding="UTF-8"?>
<svg id="Capa_6" data-name="Capa 6" xmlns="http://www.w3.org/2000/svg" xmlns:xlink="http://www.w3.org/1999/xlink" viewBox="0 0 16 16">
  <defs>
    <style>
      .cls-1 {
        fill: #fff;
      }

      .cls-2 {
        fill: #313031;
      }

      .cls-3 {
        clip-path: url(#clippath);
      }

      .cls-4 {
        fill: none;
      }
    </style>
    <clipPath id="clippath">
      <rect class="cls-4" x="2.45" y="2.61" width="10.86" height="10.86" rx="1.32" ry="1.32" transform="translate(7.99 -3.22) rotate(45)"/>
    </clipPath>
  </defs>
  <rect class="cls-2" x="-.34" y="-.06" width="16.58" height="16.27"/>
  <g>
    <path class="cls-1" d="M3.77,2.61H13.31V12.15c0,.73-.59,1.32-1.32,1.32H3.77c-.73,0-1.32-.59-1.32-1.32V3.93c0-.73,.59-1.32,1.32-1.32Z" transform="translate(7.99 -3.22) rotate(45)"/>
    <g class="cls-3">
      <path class="cls-2" d="M8.26,15.42h-.75v-3.65c-.13-.05-.24-.13-.34-.22l-2.79-2.8c-.19-.19-.3-.45-.3-.72s.11-.53,.3-.72l2.79-2.79c.1-.1,.21-.17,.34-.22V.74h.75V4.98h-.38c-.07,0-.14,.03-.19,.08l-2.79,2.79c-.1,.1-.1,.27,0,.37l2.79,2.8s.12,.08,.19,.08h.38v4.33Z"/>
      <g>
        <rect class="cls-2" x="6.74" y="4.19" width="8.27" height="2.57" rx="1.28" ry="1.28"/>
        <path class="cls-2" d="M13.73,11.89h-5.7c-.71,0-1.28-.58-1.28-1.28h0c0-.71,.58-1.28,1.28-1.28h5.7c.71,0,1.28,.58,1.28,1.28h0c0,.71-.58,1.28-1.28,1.28Z"/>
      </g>
    </g>
  </g>
</svg>